<svg width="41" height="20" viewBox="0 0 41 20" fill="none" xmlns="http://www.w3.org/2000/svg">
<path d="M12.4941 14.8143C11.9586 14.8143 11.5245 14.3802 11.5245 13.8447V7.49977C11.5245 6.96428 11.9586 6.53018 12.4941 6.53018C13.0296 6.53018 13.4637 6.96428 13.4637 7.49977V13.8447C13.4637 14.3802 13.0296 14.8143 12.4941 14.8143Z" fill="black"/>
<path d="M26.4649 6.4371C27.1268 6.4371 27.7111 6.56638 28.2179 6.82494C28.735 7.08349 29.1383 7.48167 29.4279 8.01947C29.7175 8.54692 29.8623 9.22951 29.8623 10.0672V13.8447C29.8623 14.3802 29.4282 14.8143 28.8927 14.8143C28.3572 14.8143 27.9231 14.3802 27.9231 13.8447V10.3154C27.9231 9.58115 27.7628 9.03301 27.4422 8.67103C27.1216 8.30905 26.6614 8.12806 26.0615 8.12806C25.6375 8.12806 25.26 8.22114 24.9291 8.4073C24.6084 8.59346 24.3551 8.86753 24.1689 9.22951C23.9931 9.59149 23.9052 10.0517 23.9052 10.6102V13.8447C23.9052 14.3802 23.4711 14.8143 22.9356 14.8143C22.4001 14.8143 21.966 14.3802 21.966 13.8447V10.3154C21.966 9.58115 21.8057 9.03301 21.4851 8.67103C21.1645 8.30905 20.7042 8.12806 20.1044 8.12806C19.6804 8.12806 19.3029 8.22114 18.9719 8.4073C18.6513 8.59346 18.3979 8.86753 18.2118 9.22951C18.0359 9.59149 17.948 10.0517 17.948 10.6102V13.8447C17.948 14.3802 17.5139 14.8143 16.9785 14.8143C16.443 14.8143 16.0089 14.3802 16.0089 13.8447V7.45323C16.0089 6.94344 16.4221 6.53018 16.9319 6.53018H17.4342C17.6666 6.53018 17.855 6.71854 17.855 6.9509V8.08284C17.855 8.24481 17.6366 8.29636 17.5642 8.15148C17.5422 8.10753 17.5424 8.05556 17.5661 8.01251C17.8435 7.50865 18.2346 7.12314 18.7392 6.85596C19.277 6.57672 19.8872 6.4371 20.5698 6.4371C21.3455 6.4371 22.0177 6.62844 22.5865 7.0111C23.0385 7.30972 23.3708 7.72802 23.5834 8.26598C23.6639 8.46952 23.4631 8.65444 23.2564 8.58271C23.1042 8.5299 23.028 8.35806 23.1056 8.21689C23.3791 7.71977 23.78 7.31267 24.3085 6.99559C24.9291 6.62326 25.6478 6.4371 26.4649 6.4371Z" fill="black"/>
<path d="M36.0787 14.9229C35.2306 14.9229 34.4756 14.7419 33.8137 14.3799C33.1518 14.0076 32.6295 13.5009 32.2469 12.8596C31.8642 12.2184 31.6729 11.4893 31.6729 10.6723C31.6729 9.84487 31.8642 9.11574 32.2469 8.48487C32.6295 7.84365 33.1518 7.34205 33.8137 6.98007C34.4756 6.61809 35.2306 6.4371 36.0787 6.4371C36.9371 6.4371 37.6972 6.61809 38.3591 6.98007C39.0314 7.34205 39.5537 7.83848 39.926 8.46935C40.3087 9.10023 40.5 9.83453 40.5 10.6723C40.5 11.4893 40.3087 12.2184 39.926 12.8596C39.5537 13.5009 39.0314 14.0076 38.3591 14.3799C37.6972 14.7419 36.9371 14.9229 36.0787 14.9229ZM36.0787 13.263C36.5544 13.263 36.9785 13.1596 37.3508 12.9527C37.7231 12.7459 38.0127 12.4459 38.2195 12.0529C38.4367 11.6599 38.5453 11.1997 38.5453 10.6723C38.5453 10.1345 38.4367 9.67423 38.2195 9.29156C38.0127 8.89856 37.7231 8.59863 37.3508 8.39179C36.9785 8.18494 36.5596 8.08152 36.0942 8.08152C35.6184 8.08152 35.1944 8.18494 34.8221 8.39179C34.4601 8.59863 34.1705 8.89856 33.9533 9.29156C33.7362 9.67423 33.6276 10.1345 33.6276 10.6723C33.6276 11.1997 33.7362 11.6599 33.9533 12.0529C34.1705 12.4459 34.4601 12.7459 34.8221 12.9527C35.1944 13.1596 35.6133 13.263 36.0787 13.263Z" fill="black"/>
<path d="M13.6316 1.86329C13.6316 2.56409 13.0635 3.1322 12.3627 3.1322C11.6619 3.1322 11.0938 2.56409 11.0938 1.86329C11.0938 1.16249 11.6619 0.594376 12.3627 0.594376C13.0635 0.594376 13.6316 1.16249 13.6316 1.86329Z" fill="black"/>
<path fill-rule="evenodd" clip-rule="evenodd" d="M5.85539 14.4702C7.35521 14.4702 8.65299 13.4442 8.96608 12.0288C8.96978 12.0121 8.98454 12 9.00165 12C9.02164 12 9.03784 11.9838 9.03784 11.9638V11.3802L9.03786 11.3676C9.03786 11.3675 9.03786 11.3675 9.03785 11.3675C9.03784 11.3675 9.03784 11.3675 9.03784 11.3675V5.42075C9.03784 4.89716 8.61339 4.47271 8.0898 4.47271C7.56621 4.47271 7.14176 4.89716 7.14176 5.42075V11.3751C7.13746 12.0063 6.59568 12.5741 5.85539 12.5741C5.65811 12.5741 5.47356 12.5329 5.30931 12.4604C4.83028 12.2491 4.26404 11.9678 3.78056 12.1688C3.29708 12.3698 3.05953 12.9386 3.39732 13.3387C3.98496 14.0346 4.87356 14.4702 5.85539 14.4702ZM5.5607 17.4005C5.10726 17.1387 4.50535 17.3485 3.99709 17.4743C3.68942 17.5504 3.34195 17.5128 3.02232 17.3282C2.85147 17.2296 2.71225 17.1016 2.60624 16.9567C2.29708 16.5342 1.94733 16.0075 1.42814 15.9398C0.908945 15.8721 0.418796 16.246 0.511311 16.7613C0.672253 17.6578 1.22399 18.4794 2.07428 18.9703C3.28845 19.6713 4.79798 19.5076 5.78928 18.6099C6.17738 18.2584 6.01413 17.6623 5.5607 17.4005Z" fill="black"/>
</svg>
